<svg width="24" height="25" viewBox="0 0 24 25" fill="none" xmlns="http://www.w3.org/2000/svg">
<path d="M10.585 11.087C10.21 11.4622 9.99936 11.9709 9.99945 12.5014C9.99954 13.0318 10.2104 13.5405 10.5855 13.9155C10.9607 14.2905 11.4694 14.5012 11.9999 14.5011C12.5303 14.501 13.039 14.2902 13.414 13.915M16.681 17.173C15.2782 18.0507 13.6547 18.5109 12 18.5C8.4 18.5 5.4 16.5 3 12.5C4.272 10.38 5.712 8.822 7.32 7.826M10.18 6.68C10.779 6.55873 11.3888 6.49842 12 6.5C15.6 6.5 18.6 8.5 21 12.5C20.334 13.61 19.621 14.567 18.862 15.37M3 3.5L21 21.5" stroke="#B8B8B8" stroke-width="1.5" stroke-linecap="round" stroke-linejoin="round"/>
</svg>
