<svg width="28" height="28" viewBox="0 0 28 28" fill="none" xmlns="http://www.w3.org/2000/svg">
<path d="M14.0003 15.2296L8.08176 21.1484C7.92017 21.3098 7.71708 21.3925 7.47247 21.3963C7.22805 21.4 7.02126 21.3174 6.85209 21.1484C6.68312 20.9793 6.59863 20.7743 6.59863 20.5336C6.59863 20.2929 6.68312 20.0879 6.85209 19.9188L12.7709 14.0003L6.85209 8.08176C6.6907 7.92018 6.60806 7.71708 6.60417 7.47247C6.60048 7.22805 6.68312 7.02126 6.85209 6.85209C7.02126 6.68312 7.2262 6.59863 7.46692 6.59863C7.70765 6.59863 7.91259 6.68312 8.08176 6.85209L14.0003 12.7709L19.9188 6.85209C20.0803 6.6907 20.2834 6.60806 20.5281 6.60417C20.7725 6.60048 20.9793 6.68312 21.1484 6.85209C21.3174 7.02126 21.4019 7.2262 21.4019 7.46693C21.4019 7.70765 21.3174 7.91259 21.1484 8.08176L15.2296 14.0003L21.1484 19.9188C21.3098 20.0803 21.3925 20.2834 21.3963 20.5281C21.4 20.7725 21.3174 20.9793 21.1484 21.1484C20.9793 21.3174 20.7743 21.4019 20.5336 21.4019C20.2929 21.4019 20.0879 21.3174 19.9188 21.1484L14.0003 15.2296Z" fill="#D4D4D4"/>
</svg>
