<svg width="20" height="23" viewBox="0 0 20 23" fill="none" xmlns="http://www.w3.org/2000/svg">
<path d="M2.19229 22.9167C1.61227 22.9167 1.11575 22.7102 0.702752 22.2972C0.289752 21.8842 0.083252 21.3876 0.083252 20.8076V5.19237C0.083252 4.61235 0.289752 4.11583 0.702752 3.70283C1.11575 3.28983 1.61227 3.08333 2.19229 3.08333H7.38396C7.45727 2.43564 7.73999 1.88487 8.23213 1.43104C8.72407 0.977013 9.31518 0.75 10.0055 0.75C10.6957 0.75 11.2869 0.977013 11.7791 1.43104C12.2712 1.88487 12.5502 2.43564 12.6159 3.08333H17.8075C18.3876 3.08333 18.8841 3.28983 19.2971 3.70283C19.7101 4.11583 19.9166 4.61235 19.9166 5.19237V20.8076C19.9166 21.3876 19.7101 21.8842 19.2971 22.2972C18.8841 22.7102 18.3876 22.9167 17.8075 22.9167H2.19229ZM5.33325 18.4069H11.1666C11.4145 18.4069 11.6223 18.323 11.7899 18.1552C11.9577 17.9876 12.0416 17.7797 12.0416 17.5316C12.0416 17.2837 11.9577 17.0759 11.7899 16.9083C11.6223 16.7409 11.4145 16.6572 11.1666 16.6572H5.33325C5.08534 16.6572 4.87757 16.741 4.70996 16.9086C4.54216 17.0764 4.45825 17.2844 4.45825 17.5325C4.45825 17.7804 4.54216 17.9882 4.70996 18.1558C4.87757 18.3232 5.08534 18.4069 5.33325 18.4069ZM5.33325 13.875H14.6666C14.9145 13.875 15.1223 13.7911 15.2899 13.6233C15.4577 13.4555 15.5416 13.2476 15.5416 12.9997C15.5416 12.7516 15.4577 12.5438 15.2899 12.3764C15.1223 12.2088 14.9145 12.125 14.6666 12.125H5.33325C5.08534 12.125 4.87757 12.2089 4.70996 12.3767C4.54216 12.5445 4.45825 12.7524 4.45825 13.0003C4.45825 13.2484 4.54216 13.4562 4.70996 13.6236C4.87757 13.7912 5.08534 13.875 5.33325 13.875ZM5.33325 9.34279H14.6666C14.9145 9.34279 15.1223 9.25898 15.2899 9.09137C15.4577 8.92357 15.5416 8.71561 15.5416 8.4675C15.5416 8.21958 15.4577 8.01182 15.2899 7.84421C15.1223 7.67679 14.9145 7.59308 14.6666 7.59308H5.33325C5.08534 7.59308 4.87757 7.67699 4.70996 7.84479C4.54216 8.0124 4.45825 8.22026 4.45825 8.46837C4.45825 8.71629 4.54216 8.92405 4.70996 9.09167C4.87757 9.25908 5.08534 9.34279 5.33325 9.34279ZM9.99992 4.07062C10.2527 4.07062 10.4617 3.98798 10.627 3.82271C10.7923 3.65743 10.8749 3.4484 10.8749 3.19562C10.8749 2.94285 10.7923 2.73382 10.627 2.56854C10.4617 2.40326 10.2527 2.32062 9.99992 2.32062C9.74714 2.32062 9.53811 2.40326 9.37284 2.56854C9.20756 2.73382 9.12492 2.94285 9.12492 3.19562C9.12492 3.4484 9.20756 3.65743 9.37284 3.82271C9.53811 3.98798 9.74714 4.07062 9.99992 4.07062Z" fill="#00B9FF"/>
</svg>
