<svg width="168" height="57" viewBox="0 0 168 57" fill="none" xmlns="http://www.w3.org/2000/svg">
<path d="M0.41875 55.476V1.332H23.7148C37.6028 1.332 46.0508 12.084 46.0508 28.404C46.0508 44.724 37.6028 55.476 23.7148 55.476H0.41875ZM1.57075 28.084C12.6428 28.084 23.1388 39.988 23.1388 54.132C23.1388 39.988 33.6348 28.02 44.7068 28.02C33.6348 28.02 23.1388 15.988 23.1388 1.844C23.1388 15.988 12.6428 28.084 1.57075 28.084ZM50.8563 32.628V23.028H72.1043V32.628H50.8563Z" fill="#00D4FF"/>
<path d="M111.441 34.548H124.241V37.748C124.241 49.204 114.769 56.308 100.881 56.308C86.9933 56.308 77.5213 48.564 77.5213 36.468V20.404C77.5213 8.308 86.9933 0.563999 100.881 0.563999C114.769 0.563999 124.241 7.668 124.241 19.124V21.684H111.441V19.764C111.441 13.812 107.537 10.804 100.881 10.804C94.2253 10.804 90.3213 14.452 90.3213 21.044V35.828C90.3213 42.42 94.2253 46.068 100.881 46.068C107.537 46.068 111.441 43.06 111.441 37.108V34.548Z" fill="#01EC7F"/>
<path d="M126.506 55.476V47.156L151.786 11.572H127.146V1.332H166.89V9.652L141.482 46.836C149.994 46.836 160.618 46.004 167.21 42.676V55.476H126.506Z" fill="#AE55EC"/>
</svg>
