<svg width="300" height="64" viewBox="0 0 300 64" fill="none" xmlns="http://www.w3.org/2000/svg">
<path d="M7.51123 52.232V11.624H24.9832C35.3992 11.624 41.7352 19.688 41.7352 31.928C41.7352 44.168 35.3992 52.232 24.9832 52.232H7.51123ZM8.37523 31.688C16.6792 31.688 24.5512 40.616 24.5512 51.224C24.5512 40.616 32.4232 31.64 40.7272 31.64C32.4232 31.64 24.5512 22.616 24.5512 12.008C24.5512 22.616 16.6792 31.688 8.37523 31.688ZM45.3394 35.096V27.896H61.2754V35.096H45.3394Z" fill="#00D4FF"/>
<path d="M90.7781 36.5359H100.378V38.9359C100.378 47.5279 93.2741 52.8559 82.8581 52.8559C72.4421 52.8559 65.3381 47.0479 65.3381 37.9759V25.9279C65.3381 16.8559 72.4421 11.0479 82.8581 11.0479C93.2741 11.0479 100.378 16.3759 100.378 24.9679V26.8879H90.7781V25.4479C90.7781 20.9839 87.8501 18.7279 82.8581 18.7279C77.8661 18.7279 74.9381 21.4639 74.9381 26.4079V37.4958C74.9381 42.4398 77.8661 45.1758 82.8581 45.1758C87.8501 45.1758 90.7781 42.9199 90.7781 38.4559V36.5359Z" fill="#01EC7F"/>
<path d="M102.077 52.232V45.992L121.037 19.304H102.557V11.624H132.365V17.864L113.309 45.752C119.693 45.752 127.661 45.128 132.605 42.632V52.232H102.077Z" fill="#AE55EC"/>
<path d="M167.061 50.9238H164.721C161.301 50.9238 159.789 48.5118 159.789 44.9478V30.0438H156.441V28.1718H159.861V20.4678H162.021V28.1718H166.701V30.0438H162.021V45.0918C162.021 47.5038 162.669 49.0518 165.225 49.0518H167.061V50.9238ZM179.335 49.5198C184.159 49.5198 187.003 46.9278 187.003 44.0838V43.6878H189.091V44.4438C189.091 47.8998 185.419 51.3918 179.335 51.3918C172.891 51.3918 169.219 47.1798 169.219 41.9238V37.1718C169.219 31.9158 172.891 27.7038 179.335 27.7038C185.779 27.7038 189.451 31.9158 189.451 37.1718V40.2678H171.307V41.5638C171.307 46.2078 174.151 49.5198 179.335 49.5198ZM187.363 38.5038V37.5318C187.363 32.8878 184.519 29.5758 179.335 29.5758C174.151 29.5758 171.307 32.8878 171.307 37.5318V38.5038H187.363ZM202.433 37.7838L209.741 36.8118V35.9478C209.741 31.4838 207.437 29.6838 202.253 29.6838C197.429 29.6838 195.125 32.2758 195.125 35.1198V35.6958H193.037V34.7598C193.037 31.3038 196.169 27.8118 202.253 27.8118C208.697 27.8118 211.829 30.5118 211.829 35.5878V50.9598H209.741V47.5758C209.021 49.1958 205.529 51.3918 201.353 51.3918C196.025 51.3918 192.317 49.3398 192.317 45.1638C192.317 40.8438 195.845 38.6478 202.433 37.7838ZM209.741 38.6838L202.433 39.6558C197.465 40.3038 194.405 41.5998 194.405 45.1638C194.405 48.0078 196.925 49.5198 201.353 49.5198C205.313 49.5198 209.741 47.3238 209.741 43.4718V38.6838ZM225.607 27.7038C231.547 27.7038 235.255 31.1958 235.255 35.0118V36.0198H233.167V35.3718C233.167 32.1678 230.287 29.5758 225.607 29.5758C220.351 29.5758 217.327 32.8878 217.327 37.5318V41.5638C217.327 46.2078 220.351 49.5198 225.607 49.5198C230.287 49.5198 233.167 46.8558 233.167 43.7238V43.0758H235.255V44.0838C235.255 47.8278 231.547 51.3918 225.607 51.3918C219.091 51.3918 215.239 47.1798 215.239 41.9238V37.1718C215.239 31.9158 219.091 27.7038 225.607 27.7038ZM250.006 28.1718C253.822 28.1718 256.702 30.2598 256.702 35.2278V50.9238H254.614V34.8678C254.614 31.6638 252.67 29.9718 250.006 29.9718C246.514 29.9718 243.31 31.2678 240.574 32.7438V50.9238H238.486V20.4678H240.574V30.7278C243.31 29.5038 246.658 28.1718 250.006 28.1718ZM269.863 49.5198C274.687 49.5198 277.531 46.9278 277.531 44.0838V43.6878H279.619V44.4438C279.619 47.8998 275.947 51.3918 269.863 51.3918C263.419 51.3918 259.747 47.1798 259.747 41.9238V37.1718C259.747 31.9158 263.419 27.7038 269.863 27.7038C276.307 27.7038 279.979 31.9158 279.979 37.1718V40.2678H261.835V41.5638C261.835 46.2078 264.679 49.5198 269.863 49.5198ZM277.891 38.5038V37.5318C277.891 32.8878 275.047 29.5758 269.863 29.5758C264.679 29.5758 261.835 32.8878 261.835 37.5318V38.5038H277.891ZM285.364 28.1718V33.5718C286.912 30.3678 290.728 27.8118 295.156 28.0998V30.1158C290.44 29.8278 286.876 32.8158 285.364 36.4518V50.9238H283.204V28.1718H285.364Z" fill="#E0FAFF"/>
</svg>
