<svg width="32" height="32" viewBox="0 0 32 32" fill="none" xmlns="http://www.w3.org/2000/svg">
<path fill-rule="evenodd" clip-rule="evenodd" d="M22.2266 17.5068C24.0532 18.7468 25.3332 20.4268 25.3332 22.6668V26.6668H30.6666V22.6668C30.6666 19.7602 25.9066 18.0402 22.2266 17.5068Z" fill="#00D4FF"/>
<path d="M12.0001 15.9997C14.9456 15.9997 17.3334 13.6119 17.3334 10.6663C17.3334 7.72082 14.9456 5.33301 12.0001 5.33301C9.05456 5.33301 6.66675 7.72082 6.66675 10.6663C6.66675 13.6119 9.05456 15.9997 12.0001 15.9997Z" fill="#00D4FF"/>
<path fill-rule="evenodd" clip-rule="evenodd" d="M19.9999 15.9997C22.9466 15.9997 25.3333 13.613 25.3333 10.6663C25.3333 7.71967 22.9466 5.33301 19.9999 5.33301C19.3733 5.33301 18.7866 5.46634 18.2266 5.65301C19.3739 7.07196 19.9999 8.84154 19.9999 10.6663C19.9999 12.4911 19.3739 14.2607 18.2266 15.6797C18.7866 15.8663 19.3733 15.9997 19.9999 15.9997ZM11.9999 17.333C8.43992 17.333 1.33325 19.1197 1.33325 22.6663V26.6663H22.6666V22.6663C22.6666 19.1197 15.5599 17.333 11.9999 17.333Z" fill="#00D4FF"/>
</svg>
