<svg width="28" height="28" viewBox="0 0 28 28" fill="none" xmlns="http://www.w3.org/2000/svg">
<path fill-rule="evenodd" clip-rule="evenodd" d="M12.25 7C12.25 6.53587 12.4344 6.09075 12.7626 5.76256C13.0908 5.43437 13.5359 5.25 14 5.25C14.4641 5.25 14.9092 5.43437 15.2374 5.76256C15.5656 6.09075 15.75 6.53587 15.75 7C15.75 7.46413 15.5656 7.90925 15.2374 8.23744C14.9092 8.56563 14.4641 8.75 14 8.75C13.5359 8.75 13.0908 8.56563 12.7626 8.23744C12.4344 7.90925 12.25 7.46413 12.25 7ZM12.25 14C12.25 13.5359 12.4344 13.0908 12.7626 12.7626C13.0908 12.4344 13.5359 12.25 14 12.25C14.4641 12.25 14.9092 12.4344 15.2374 12.7626C15.5656 13.0908 15.75 13.5359 15.75 14C15.75 14.4641 15.5656 14.9092 15.2374 15.2374C14.9092 15.5656 14.4641 15.75 14 15.75C13.5359 15.75 13.0908 15.5656 12.7626 15.2374C12.4344 14.9092 12.25 14.4641 12.25 14ZM12.25 21C12.25 20.5359 12.4344 20.0908 12.7626 19.7626C13.0908 19.4344 13.5359 19.25 14 19.25C14.4641 19.25 14.9092 19.4344 15.2374 19.7626C15.5656 20.0908 15.75 20.5359 15.75 21C15.75 21.4641 15.5656 21.9092 15.2374 22.2374C14.9092 22.5656 14.4641 22.75 14 22.75C13.5359 22.75 13.0908 22.5656 12.7626 22.2374C12.4344 21.9092 12.25 21.4641 12.25 21Z" fill="white"/>
</svg>
